<svg width="16" height="16" viewBox="0 0 16 16" fill="none" xmlns="http://www.w3.org/2000/svg">
    <rect width="16" height="16" fill="white" fill-opacity="0.01"/>
    <mask id="mask0" mask-type="alpha" maskUnits="userSpaceOnUse" x="0" y="0" width="16" height="16">
    <path fill-rule="evenodd" clip-rule="evenodd" d="M2 7V14H14V7H2ZM2 5H14V3H12H4H2V5ZM16 3C16 1.89543 15.1046 1 14 1V0H12V1H4V0H2V1C0.89543 1 0 1.89543 0 3V14C0 15.1046 0.89543 16 2 16H14C15.1046 16 16 15.1046 16 14V3Z" fill="white"/>
    </mask>
    <g mask="url(#mask0)">
    <rect width="16" height="16" fill="#0BB3CE"/>
    </g>
</svg>
