<svg width="47" height="46" viewBox="0 0 47 46" fill="none" xmlns="http://www.w3.org/2000/svg">
<path fill-rule="evenodd" clip-rule="evenodd" d="M45.756 45.0898C44.776 46.0597 43.197 46.0597 42.216 45.0898L27.807 30.6797C26.829 29.7018 26.829 28.1168 27.807 27.1398C28.784 26.1618 30.369 26.1618 31.347 27.1398L45.756 41.5498C46.727 42.5298 46.727 44.1098 45.756 45.0898Z" fill="#0BB3CE"/>
<path fill-rule="evenodd" clip-rule="evenodd" d="M45.756 0.731C44.776 -0.24 43.197 -0.24 42.216 0.731L23.577 19.37L4.93696 0.731C4.44696 0.24 3.80696 0 3.16696 0C2.52596 0 1.88596 0.24 1.39596 0.731C0.425957 1.71 0.425957 3.29 1.39596 4.27L20.037 22.91L1.39596 41.55C0.425957 42.53 0.425957 44.11 1.39596 45.09C2.37596 46.06 3.95696 46.06 4.93696 45.09L45.756 4.27C46.247 3.78 46.486 3.14 46.486 2.5C46.486 1.86 46.247 1.22 45.756 0.731Z" fill="#C2CFE0"/>
</svg>
