<svg width="24" height="24" viewBox="0 0 24 24" fill="none" xmlns="http://www.w3.org/2000/svg">
<rect width="24" height="24" fill="white" fill-opacity="0.01"/>
<mask id="mask0" mask-type="alpha" maskUnits="userSpaceOnUse" x="2" y="3" width="20" height="18">
<path fill-rule="evenodd" clip-rule="evenodd" d="M4 18V5H16V18C16 18.3506 16.0602 18.6872 16.1707 19H5C4.44772 19 4 18.5523 4 18ZM19 21H5C3.34315 21 2 19.6569 2 18V3H16H17H18V8H20H22V10V18C22 19.6569 20.6569 21 19 21ZM18 10H20V18C20 18.5523 19.5523 19 19 19C18.4477 19 18 18.5523 18 18V10ZM10 7V11H6V7H10ZM14 10V8H11V10H14ZM14 12V14H6V12H14ZM14 17V15H6V17H14Z" fill="white"/>
</mask>
<g mask="url(#mask0)">
<rect width="24" height="24" fill="#C2CFE0"/>
</g>
</svg>
