<svg width="48" height="50" viewBox="0 0 48 50" fill="none" xmlns="http://www.w3.org/2000/svg">
<g clip-path="url(#clip0)">
<path fill-rule="evenodd" clip-rule="evenodd" d="M47.666 2.50023C47.666 1.11923 46.5471 0.000225736 45.166 0.000225736C43.786 0.000225736 42.666 1.11923 42.666 2.50023V6.67923C37.8501 2.20523 31.2661 -0.395774 24.0711 0.0492257C11.8171 0.809226 1.77105 10.6322 0.755051 22.8682C0.198051 29.5702 2.29505 35.7922 6.10605 40.5742C7.04505 41.7532 8.79105 41.8752 9.85705 40.8092C10.7741 39.8922 10.8111 38.4492 10.0041 37.4352C6.91105 33.5442 5.23605 28.4782 5.76205 23.0182C6.66605 13.6362 14.2441 6.03923 23.6221 5.10323C29.7221 4.49323 35.34 6.65023 39.3781 10.4602L34.4401 10.0072C33.0651 9.88123 31.8491 10.8942 31.7231 12.2692C31.5971 13.6442 32.6091 14.8612 33.9841 14.9872L44.9381 15.9902C44.9771 15.9932 45.014 15.9872 45.0531 15.9882C45.091 15.9902 45.127 16.0002 45.166 16.0002C45.2131 16.0002 45.257 15.9892 45.3031 15.9862C45.3901 15.9812 45.4761 15.9742 45.5611 15.9602C45.6411 15.9472 45.7191 15.9302 45.7961 15.9102C45.8761 15.8892 45.9551 15.8662 46.0311 15.8372C46.1081 15.8092 46.181 15.7772 46.2541 15.7412C46.326 15.7072 46.3951 15.6692 46.4631 15.6282C46.5321 15.5862 46.5981 15.5412 46.6631 15.4922C46.7261 15.4442 46.7871 15.3942 46.8461 15.3402C46.905 15.2872 46.96 15.2312 47.014 15.1712C47.0681 15.1122 47.1191 15.0502 47.1671 14.9852C47.2151 14.9212 47.2581 14.8562 47.3001 14.7872C47.3411 14.7182 47.3801 14.6482 47.4151 14.5752C47.451 14.5012 47.4811 14.4242 47.5091 14.3462C47.5371 14.2722 47.5601 14.1962 47.5811 14.1172C47.6021 14.0342 47.6171 13.9492 47.6301 13.8622C47.6371 13.8162 47.6521 13.7742 47.6561 13.7282C47.6601 13.6902 47.6531 13.6522 47.6551 13.6142C47.6571 13.5752 47.666 13.5392 47.666 13.5002V2.50023Z" fill="#C2CFE0"/>
<path fill-rule="evenodd" clip-rule="evenodd" d="M21.3279 44.5975C21.1679 44.5175 20.9979 44.4535 20.8179 44.4085C19.4149 44.0565 18.0409 43.5465 16.7319 42.8935C16.1219 42.5885 15.5229 42.2515 14.9509 41.8895C14.8789 41.8435 14.8049 41.8015 14.7289 41.7645C13.5949 41.1975 12.1939 41.5715 11.5019 42.6665C10.7659 43.8315 11.1109 45.3725 12.2729 46.1115C12.8519 46.4775 13.4509 46.8235 14.0669 47.1465H14.0679C14.0739 47.1495 14.0789 47.1515 14.0849 47.1555C14.0909 47.1585 14.0969 47.1615 14.1019 47.1645C14.1029 47.1645 14.1029 47.1645 14.1029 47.1645C14.1089 47.1675 14.1149 47.1705 14.1199 47.1735C14.1209 47.1735 14.1209 47.1735 14.1219 47.1745C14.1259 47.1765 14.1319 47.1795 14.1369 47.1825C14.1379 47.1825 14.1389 47.1835 14.1389 47.1835C14.1439 47.1865 14.1499 47.1895 14.1559 47.1915L14.1569 47.1925C14.1629 47.1955 14.1669 47.1985 14.1729 47.2005C14.1739 47.2015 14.1739 47.2015 14.1749 47.2025C14.1799 47.2045 14.1849 47.2075 14.1909 47.2095C14.1909 47.2105 14.1919 47.2105 14.1929 47.2115C14.1979 47.2135 14.2029 47.2165 14.2079 47.2185C14.2089 47.2195 14.2099 47.2205 14.2109 47.2205C14.2149 47.2225 14.2209 47.2255 14.2249 47.2285C14.2269 47.2285 14.2269 47.2295 14.2289 47.2305C14.2329 47.2315 14.2379 47.2345 14.2429 47.2365C14.2439 47.2375 14.2459 47.2385 14.2469 47.2385C14.2509 47.2415 14.2559 47.2445 14.2609 47.2465C14.2619 47.2475 14.2639 47.2475 14.2649 47.2485C14.2689 47.2505 14.2729 47.2525 14.2779 47.2545C14.2799 47.2555 14.2809 47.2565 14.2829 47.2575C14.2869 47.2595 14.2899 47.2615 14.2949 47.2635C14.2969 47.2645 14.2989 47.2655 14.3009 47.2665C14.3049 47.2695 14.3089 47.2715 14.3129 47.2725C14.3149 47.2735 14.3169 47.2745 14.3189 47.2755C14.3229 47.2775 14.3279 47.2805 14.3319 47.2825C14.3339 47.2835 14.3349 47.2845 14.3359 47.2845C14.3409 47.2875 14.3459 47.2895 14.3509 47.2925C14.3519 47.2925 14.3529 47.2935 14.3539 47.2935C14.3589 47.2965 14.3629 47.2985 14.3679 47.3005C14.3699 47.3015 14.3709 47.3025 14.3719 47.3035C14.3769 47.3055 14.3809 47.3075 14.3849 47.3095C14.3869 47.3105 14.3889 47.3115 14.3909 47.3125C14.3949 47.3145 14.3989 47.3165 14.4039 47.3185C14.4059 47.3195 14.4069 47.3205 14.4089 47.3215C14.4129 47.3235 14.4179 47.3265 14.4229 47.3285C14.4239 47.3295 14.4249 47.3295 14.4269 47.3305C14.4309 47.3325 14.4349 47.3345 14.4389 47.3365C14.4409 47.3375 14.4429 47.3385 14.4449 47.3395C14.4559 47.3445 14.4669 47.3505 14.4769 47.3555C14.4779 47.3565 14.4789 47.3565 14.4809 47.3575C14.4869 47.3605 14.4929 47.3635 14.4989 47.3665C14.5049 47.3695 14.5099 47.3725 14.5159 47.3755C14.5169 47.3755 14.5169 47.3755 14.5179 47.3765C14.5229 47.3785 14.5279 47.3815 14.5339 47.3835C14.5349 47.3845 14.5349 47.3845 14.5359 47.3855C14.5409 47.3875 14.5459 47.3905 14.5519 47.3935C14.5529 47.3935 14.5539 47.3935 14.5539 47.3945C14.5589 47.3965 14.5649 47.3995 14.5699 47.4015C14.5709 47.4025 14.5719 47.4025 14.5729 47.4035C14.5779 47.4055 14.5829 47.4085 14.5889 47.4115C14.5889 47.4115 14.5899 47.4115 14.5909 47.4125C14.5959 47.4145 14.6019 47.4175 14.6069 47.4205C14.6079 47.4205 14.6079 47.4205 14.6079 47.4205C14.6209 47.4265 14.6309 47.4325 14.6429 47.4385C14.6429 47.4385 14.6429 47.4385 14.6439 47.4385C14.6499 47.4415 14.6549 47.4435 14.6609 47.4465C14.6619 47.4465 14.6619 47.4475 14.6629 47.4475C14.6679 47.4505 14.6729 47.4525 14.6789 47.4555C14.6799 47.4555 14.6799 47.4565 14.6809 47.4565C14.6859 47.4595 14.6919 47.4615 14.6969 47.4645C14.6979 47.4645 14.6989 47.4655 14.6989 47.4655C14.7049 47.4685 14.7099 47.4705 14.7149 47.4735C14.7159 47.4735 14.7169 47.4745 14.7179 47.4745C14.7229 47.4775 14.7289 47.4805 14.7339 47.4825H14.7349C14.7409 47.4855 14.7469 47.4885 14.7519 47.4915H14.7529C14.7589 47.4945 14.7639 47.4975 14.7699 47.5005H14.7709C14.7759 47.5025 14.7819 47.5055 14.7879 47.5085C14.7879 47.5085 14.7889 47.5095 14.7899 47.5095C14.7959 47.5125 14.7999 47.5145 14.8059 47.5175C14.8069 47.5175 14.8069 47.5185 14.8079 47.5185C14.8139 47.5215 14.8179 47.5225 14.8239 47.5255C14.8249 47.5265 14.8259 47.5265 14.8269 47.5275C14.8309 47.5295 14.8369 47.5325 14.8429 47.5355C14.8429 47.5355 14.8439 47.5355 14.8449 47.5355C14.8499 47.5385 14.8559 47.5415 14.8609 47.5435C14.8619 47.5435 14.8619 47.5445 14.8629 47.5445C14.8739 47.5505 14.8849 47.5555 14.8969 47.5615H14.8979C14.9039 47.5645 14.9099 47.5665 14.9149 47.5695C14.9149 47.5695 14.9159 47.5705 14.9169 47.5705C14.9219 47.5725 14.9279 47.5755 14.9329 47.5785C14.9339 47.5785 14.9349 47.5795 14.9349 47.5795C14.9409 47.5825 14.9449 47.5845 14.9519 47.5865C14.9519 47.5875 14.9529 47.5875 14.9539 47.5875C14.9589 47.5905 14.9639 47.5925 14.9699 47.5955C14.9709 47.5965 14.9709 47.5965 14.9719 47.5965C14.9769 47.5995 14.9819 47.6015 14.9879 47.6045C14.9889 47.6045 14.9889 47.6055 14.9899 47.6055C14.9959 47.6075 15.0009 47.6105 15.0069 47.6135C15.0129 47.6165 15.0179 47.6185 15.0249 47.6215C15.0249 47.6215 15.0249 47.6215 15.0249 47.6225C15.0319 47.6255 15.0369 47.6265 15.0419 47.6295C15.0429 47.6305 15.0429 47.6305 15.0439 47.6305C15.0499 47.6335 15.0549 47.6355 15.0599 47.6385C15.0609 47.6385 15.0619 47.6395 15.0619 47.6395C15.0689 47.6425 15.0729 47.6445 15.0789 47.6475C15.0799 47.6475 15.0809 47.6475 15.0809 47.6475C15.0859 47.6505 15.0919 47.6535 15.0969 47.6555C15.0979 47.6555 15.0989 47.6565 15.0989 47.6565C15.1049 47.6595 15.1099 47.6615 15.1159 47.6645H15.1169C15.1289 47.6705 15.1409 47.6755 15.1529 47.6815C15.1589 47.6845 15.1639 47.6875 15.1699 47.6895C15.1709 47.6895 15.1709 47.6895 15.1709 47.6895C15.1769 47.6925 15.1829 47.6955 15.1879 47.6985C15.1889 47.6985 15.1889 47.6985 15.1899 47.6985C15.1959 47.7015 15.2009 47.7035 15.2059 47.7065C15.2069 47.7065 15.2079 47.7075 15.2079 47.7075C15.2139 47.7095 15.2189 47.7115 15.2249 47.7145C15.2259 47.7155 15.2259 47.7155 15.2269 47.7155C15.2319 47.7185 15.2379 47.7215 15.2439 47.7235C15.2619 47.7315 15.2799 47.7405 15.2979 47.7485H15.2989C15.3049 47.7515 15.3099 47.7535 15.3159 47.7565C15.3159 47.7565 15.3169 47.7565 15.3169 47.7575C15.3239 47.7605 15.3289 47.7625 15.3339 47.7655C15.3349 47.7655 15.3349 47.7655 15.3359 47.7655C15.3419 47.7685 15.3469 47.7705 15.3529 47.7735C15.3529 47.7735 15.3529 47.7735 15.3539 47.7735C15.3599 47.7765 15.3649 47.7785 15.3719 47.7815C15.3719 47.7815 15.3719 47.7815 15.3719 47.7825C15.3959 47.7935 15.4199 47.8035 15.4449 47.8145C15.4509 47.8175 15.4569 47.8205 15.4629 47.8225C15.4629 47.8225 15.4629 47.8225 15.4629 47.8235C15.4689 47.8255 15.4749 47.8285 15.4809 47.8315C15.5179 47.8475 15.5549 47.8635 15.5909 47.8795C16.9089 48.4615 18.2509 48.9195 19.6069 49.2595C20.9439 49.5915 22.2979 48.7785 22.6339 47.4415C22.9249 46.2825 22.3549 45.1095 21.3279 44.5975Z" fill="#C2CFE0"/>
<path fill-rule="evenodd" clip-rule="evenodd" d="M32.017 44.6459C31.51 44.3929 30.914 44.3099 30.318 44.4519C29.282 44.7009 28.219 44.8679 27.158 44.9479C25.782 45.0529 24.75 46.2529 24.855 47.6299C24.924 48.5399 25.472 49.2989 26.233 49.6789C26.622 49.8729 27.066 49.9679 27.531 49.9339C28.869 49.8329 30.193 49.6239 31.492 49.3129C32.83 48.9869 33.654 47.6409 33.332 46.2999C33.153 45.5519 32.655 44.9639 32.017 44.6459Z" fill="#0BB3CE"/>
<path fill-rule="evenodd" clip-rule="evenodd" d="M40.1339 40.8828C39.3209 40.4778 38.3159 40.5298 37.5339 41.1048C37.1059 41.4188 36.6609 41.7198 36.2089 41.9998C35.0349 42.7258 34.6709 44.2668 35.3979 45.4408C35.6509 45.8508 36.0029 46.1618 36.4049 46.3618C37.1529 46.7348 38.0719 46.7248 38.8359 46.2538C39.4039 45.9028 39.9609 45.5268 40.5009 45.1288C41.6089 44.3108 41.8459 42.7488 41.0289 41.6378C40.7859 41.3078 40.4769 41.0538 40.1339 40.8828Z" fill="#0BB3CE"/>
<path fill-rule="evenodd" clip-rule="evenodd" d="M45.465 35.8742C44.319 35.1052 42.766 35.4112 41.997 36.5582C41.227 37.7042 41.533 39.2572 42.68 40.0262C43.827 40.7962 45.379 40.4902 46.149 39.3432C46.918 38.1962 46.612 36.6442 45.465 35.8742Z" fill="#0BB3CE"/>
</g>
<defs>
<clipPath id="clip0">
<rect width="48" height="50" fill="white"/>
</clipPath>
</defs>
</svg>
