<svg width="170" height="168" viewBox="0 0 170 168" fill="none" xmlns="http://www.w3.org/2000/svg">
<g filter="url(#filter0_d)">
<path d="M38.1599 88.5485C38.1599 88.5485 25.8703 79.0594 31.1318 61.5879C31.1318 61.5879 25.1796 68.3334 24.1611 76.5649C24.1025 77.041 24.0523 77.5202 24.0291 78.0055C23.7186 84.3422 25.9455 88.9898 28.1884 92.0737C29.3083 93.6135 30.6562 94.9733 32.1038 96.209L66.6282 125.642C66.6282 125.642 73.0297 125.827 77.9171 122.533L38.1599 88.5485Z" fill="#0BB3CE"/>
<path d="M48.4817 71.4157C48.4817 71.4157 36.1921 61.9266 41.4536 44.4551C41.4536 44.4551 35.5014 51.2006 34.4829 59.432C34.4242 59.9082 34.3741 60.3874 34.3509 60.8727C34.0403 67.2094 36.2673 71.857 38.5102 74.9408C39.6301 76.4806 40.978 77.8405 42.4256 79.0762L69.6504 102.425C69.6504 102.425 76.052 102.609 80.9393 99.3158L48.4817 71.4157Z" fill="#0BB3CE"/>
<path d="M125.726 48.791L93.6416 76.2565C92.8842 76.8979 86.8104 82.3956 77.7283 82.6501C77.7283 82.6501 82.7758 87.272 88.9909 87.3093C92.6269 87.5964 96.5985 86.4703 99.1739 84.2817L130.578 57.4631L125.726 48.791Z" fill="#0BB3CE"/>
<path d="M133.419 62.5361L89.586 100.06C88.8286 100.701 82.7547 106.199 73.6726 106.454C73.6726 106.454 78.7201 111.075 84.9352 111.113C88.5712 111.4 92.5428 110.274 95.1182 108.085L138.281 71.2248L133.419 62.5361Z" fill="#0BB3CE"/>
<path d="M141.094 76.252L86.5989 122.903C85.8415 123.544 79.7676 129.042 70.6855 129.296C70.6855 129.296 75.7331 133.918 81.9481 133.955C85.5842 134.242 89.5558 133.116 92.1312 130.928L145.964 84.9553L141.094 76.252Z" fill="#0BB3CE"/>
<path d="M53.7781 32.9666C53.7781 32.9666 54.8644 14 77.5442 14C100.224 14 118.286 14 118.286 14C118.286 14 118.083 23.4836 97.9152 23.4836C77.7478 23.4836 73.1985 23.4836 73.1985 23.4836C73.1985 23.4836 61.3154 23.0418 53.7781 32.9666Z" fill="#0BB3CE"/>
<path d="M100.02 33.3752C92.8139 33.3752 83.2379 33.3752 72.6551 33.3752C63.024 33.3752 56.2704 39.3012 55.2605 40.2401C56.9012 43.8601 59.075 46.3362 60.3532 47.5878C66.2853 43.3858 73.3538 42.9708 77.013 42.8588H93.0254C93.0254 42.8588 98.8652 42.9776 104.663 41.3925C106.701 40.8349 108.229 39.9959 109.423 39.1795C109.43 39.1746 109.437 39.1697 109.445 39.1648C109.547 39.095 109.652 39.0252 109.748 38.9542C112.685 36.9591 115.046 33.9756 115.773 29.5C115.774 29.5 111.631 33.3752 100.02 33.3752Z" fill="#0BB3CE"/>
<path d="M93.1274 51.4065H77.8156C72.8151 51.4065 69.3466 52.278 66.9583 53.33L75.7121 60.8901C78.6561 60.8901 82.0977 60.8901 86.1341 60.8901C86.1341 60.8901 92.5002 60.9764 97.7721 59.4237C99.7998 58.8264 101.338 58.0271 102.532 57.2107C102.54 57.2058 102.546 57.2009 102.554 57.196C102.656 57.1263 102.76 57.0565 102.857 56.9855C105.794 54.9904 108.154 52.0068 108.882 47.5312C108.881 47.5319 104.739 51.4065 93.1274 51.4065Z" fill="#0BB3CE"/>
<path d="M60.779 60.875C60.0179 61.8426 59.0545 62.7018 58.1357 63.4001C59.4445 62.7006 60.7032 62.2024 61.9075 61.8475L60.779 60.875Z" fill="#0BB3CE"/>
<path d="M58.6673 52.5524C58.6673 52.5524 46.3777 43.0633 51.6391 25.5918C51.6391 25.5918 45.6869 32.3373 44.6685 40.5688C44.6098 41.0449 44.5597 41.5241 44.5364 42.0094C44.2259 48.3461 46.4529 52.9937 48.6957 56.0776C49.8156 57.6174 51.1635 58.9772 52.6111 60.2129L74.0641 78.7009C74.0641 78.7009 80.4656 78.8857 85.353 75.5919L58.6673 52.5524Z" fill="#0BB3CE"/>
</g>
<defs>
<filter id="filter0_d" x="0" y="0" width="169.964" height="167.999" filterUnits="userSpaceOnUse" color-interpolation-filters="sRGB">
<feFlood flood-opacity="0" result="BackgroundImageFix"/>
<feColorMatrix in="SourceAlpha" type="matrix" values="0 0 0 0 0 0 0 0 0 0 0 0 0 0 0 0 0 0 127 0"/>
<feOffset dy="10"/>
<feGaussianBlur stdDeviation="12"/>
<feColorMatrix type="matrix" values="0 0 0 0 0 0 0 0 0 0 0 0 0 0 0 0 0 0 0.08 0"/>
<feBlend mode="multiply" in2="BackgroundImageFix" result="effect1_dropShadow"/>
<feBlend mode="normal" in="SourceGraphic" in2="effect1_dropShadow" result="shape"/>
</filter>
</defs>
</svg>
